<svg width="0" height="0" class="hidden">
  <symbol viewBox="0 0 50 50" id="icon-insta">
    <path d="M48.5 8.5c-1.5-3.3-4-5.9-7.4-7.4-1.8-.7-4-1.1-5.9-1.1H14.7c-2.2 0-4 .4-5.9 1.1-3.3 1.5-5.9 4-7.4 7.4-.7 1.8-1.1 4-1.1 6.3v20.6c0 2.2.4 4 1.1 6.3 1.5 3.3 4 5.9 7.4 7.4 1.8.7 4 1.1 5.9 1.1h20.6c2.2 0 4-.4 5.9-1.1 3.3-1.5 5.9-4 7.4-7.4.7-1.8 1.1-4 1.1-6.3V14.8c-.1-2.3-.4-4.1-1.2-6.3zm-3.3 16.1v9.9c0 1.5-.4 3.3-.7 4.8-.7 2.2-2.6 4-4.8 4.8-1.5.4-2.9.7-4.8.7H15.1c-1.5 0-3.3-.4-4.8-.7-2.2-.7-4-2.6-4.8-4.8-.4-1.5-.7-2.9-.7-4.8V14.7c0-1.5.4-3.3.7-4.8.7-2.2 2.6-4 4.8-4.8 1.5-.7 2.9-.7 4.8-.7h19.8c1.5 0 3.3.4 4.8.7 2.2.7 4 2.6 4.8 4.8.4 1.5.7 2.9.7 4.8v9.9z"></path>
    <path d="M25 12.1c-7 0-12.9 5.9-12.9 12.9S18 37.9 25 37.9 37.9 32 37.9 25 32.4 12.1 25 12.1zm0 21.4c-4.8 0-8.5-3.7-8.5-8.5s3.7-8.5 8.5-8.5 8.5 3.7 8.5 8.5c0 4.4-3.7 8.5-8.5 8.5zM38.6 8.8c-1.5 0-2.9 1.5-2.9 2.9s1.5 2.9 2.9 2.9 2.9-1.1 2.9-2.9c0-1.8-1.4-3.2-2.9-2.9z"></path>
  </symbol>
</svg>